<svg width="69" height="102" viewBox="0 0 69 102" fill="none" xmlns="http://www.w3.org/2000/svg">
<path d="M8.98542 8.95466C11.2323 8.95466 13.0538 7.13317 13.0538 4.88625C13.0538 2.63932 11.2323 0.817832 8.98542 0.817832C6.7385 0.817832 4.91701 2.63932 4.91701 4.88625C4.91701 7.13317 6.7385 8.95466 8.98542 8.95466Z" fill="#032AB4" stroke="#032AB4" stroke-width="1.63513"/>
<path d="M8.98542 26.271C11.2323 26.271 13.0538 24.4495 13.0538 22.2026C13.0538 19.9557 11.2323 18.1342 8.98542 18.1342C6.7385 18.1342 4.91701 19.9557 4.91701 22.2026C4.91701 24.4495 6.7385 26.271 8.98542 26.271Z" fill="#032AB4" stroke="#032AB4" stroke-width="1.63513"/>
<path d="M25.9337 8.95466C28.1806 8.95466 30.0021 7.13317 30.0021 4.88625C30.0021 2.63932 28.1806 0.817832 25.9337 0.817832C23.6868 0.817832 21.8653 2.63932 21.8653 4.88625C21.8653 7.13317 23.6868 8.95466 25.9337 8.95466Z" fill="#032AB4" stroke="#032AB4" stroke-width="1.63513"/>
<path d="M42.882 8.95466C45.1289 8.95466 46.9504 7.13317 46.9504 4.88625C46.9504 2.63932 45.1289 0.817832 42.882 0.817832C40.6351 0.817832 38.8136 2.63932 38.8136 4.88625C38.8136 7.13317 40.6351 8.95466 42.882 8.95466Z" fill="#032AB4" stroke="#032AB4" stroke-width="1.63513"/>
<path d="M19.8822 76.6457C17.2449 75.6848 11.4592 72.8021 10.1507 72.6795C7.98362 72.3115 5.69386 72.1888 3.54721 73.2723C2.58633 73.763 1.50279 74.9488 1.13479 75.9097C0.419238 77.8314 0.889456 79.0376 2.81122 79.6305C7.14541 81.0821 11.2343 83.2287 15.0778 85.7638C16.5293 86.7247 18.676 87.8082 20.1275 88.8918C22.2946 90.4455 24.4617 91.1815 26.8537 91.6518C26.8537 91.6518 36.3399 93.5735 44.0474 99.4615C46.562 101.383 50.058 101.261 52.4704 99.3388L67.0063 87.4402C68.2125 86.3567 68.5601 84.5576 67.7218 83.1061L66.0454 80.1007C65.5547 78.8945 64.7165 77.0954 64.1236 74.9283C62.9174 66.5053 58.481 57.8574 56.7841 54.7294C56.4161 53.8912 55.7006 53.4005 54.8624 53.1756C39.5905 49.5774 26.1382 54.7294 26.1382 54.7294L23.8484 51.8467C22.0493 49.4343 20.1275 47.165 18.3284 44.7526C16.284 42.1152 14.3622 39.5802 12.3178 37.0655C10.8663 35.2664 8.47429 34.8984 6.67519 36.1046C4.87609 37.4335 4.38543 39.5802 5.59164 41.6246C10.8867 51.0085 16.1613 60.2493 21.2111 69.6333C21.7017 70.7168 22.172 71.8004 22.2946 73.0066C22.54 75.4599 22.172 77.4839 19.8822 76.6457Z" fill="#032AB4" stroke="#032AB4" stroke-width="1.63513"/>
<path d="M42.882 43.5873C45.1289 43.5873 46.9504 41.7658 46.9504 39.5188C46.9504 37.2719 45.1289 35.4504 42.882 35.4504C40.6351 35.4504 38.8136 37.2719 38.8136 39.5188C38.8136 41.7658 40.6351 43.5873 42.882 43.5873Z" fill="#032AB4" stroke="#032AB4" stroke-width="1.63513"/>
<path d="M25.9337 26.271C28.1806 26.271 30.0021 24.4495 30.0021 22.2026C30.0021 19.9557 28.1806 18.1342 25.9337 18.1342C23.6868 18.1342 21.8653 19.9557 21.8653 22.2026C21.8653 24.4495 23.6868 26.271 25.9337 26.271Z" fill="#032AB4" stroke="#032AB4" stroke-width="1.63513"/>
<path d="M25.9337 43.5873C28.1806 43.5873 30.0021 41.7658 30.0021 39.5188C30.0021 37.2719 28.1806 35.4504 25.9337 35.4504C23.6868 35.4504 21.8653 37.2719 21.8653 39.5188C21.8653 41.7658 23.6868 43.5873 25.9337 43.5873Z" fill="#032AB4" stroke="#032AB4" stroke-width="1.63513"/>
<path d="M42.882 26.271C45.1289 26.271 46.9504 24.4495 46.9504 22.2026C46.9504 19.9557 45.1289 18.1342 42.882 18.1342C40.6351 18.1342 38.8136 19.9557 38.8136 22.2026C38.8136 24.4495 40.6351 26.271 42.882 26.271Z" fill="#032AB4" stroke="#032AB4" stroke-width="1.63513"/>
</svg>
