<svg width="219" height="219" viewBox="0 0 219 219" fill="none" xmlns="http://www.w3.org/2000/svg">
<path opacity="0.4" d="M219 63.6195V130.305L201.152 114.975C192.611 107.638 178.813 107.638 170.272 114.975L124.721 154.066C116.18 161.403 102.382 161.403 93.8415 154.066L90.1185 151C82.344 144.212 69.9705 143.554 61.2105 149.467L7.3365 185.602L6.132 186.479C2.0805 177.718 0 167.316 0 155.381V63.6195C0 23.7615 23.7615 0 63.6195 0H155.381C195.239 0 219 23.7615 219 63.6195Z" fill="#BEBEBE"/>
<path d="M76.65 91.7607C91.0431 91.7607 102.711 80.0928 102.711 65.6997C102.711 51.3066 91.0431 39.6387 76.65 39.6387C62.2569 39.6387 50.589 51.3066 50.589 65.6997C50.589 80.0928 62.2569 91.7607 76.65 91.7607Z" fill="#BEBEBE"/>
<path d="M219 130.305V155.38C219 195.238 195.238 219 155.381 219H63.6195C35.697 219 15.549 207.283 6.132 186.478L7.3365 185.602L61.2105 149.467C69.9705 143.554 82.344 144.211 90.1185 151L93.8415 154.066C102.382 161.403 116.179 161.403 124.72 154.066L170.272 114.975C178.813 107.638 192.611 107.638 201.152 114.975L219 130.305Z" fill="#BEBEBE"/>
</svg>
