<svg width="46" height="46" viewBox="0 0 46 46" fill="none" xmlns="http://www.w3.org/2000/svg">
<path d="M34.1359 8.56742C33.9825 8.56742 33.8292 8.52908 33.695 8.45242C30.015 6.55492 26.8334 5.74992 23.0192 5.74992C19.2242 5.74992 15.6209 6.65075 12.3434 8.45242C11.8834 8.70158 11.3084 8.52909 11.04 8.06909C10.9205 7.84492 10.8937 7.58281 10.9654 7.33909C11.0371 7.09537 11.2015 6.8895 11.4234 6.76575C14.9884 4.82992 18.8984 3.83325 23.0192 3.83325C27.1017 3.83325 30.6667 4.73409 34.5767 6.74659C35.0559 6.99575 35.2284 7.57075 34.9792 8.03075C34.9034 8.19053 34.7841 8.32566 34.6349 8.42061C34.4857 8.51555 34.3127 8.56644 34.1359 8.56742ZM6.70837 18.6299C6.5317 18.6316 6.35802 18.5842 6.2066 18.4932C6.05518 18.4021 5.93195 18.2709 5.85056 18.1141C5.76917 17.9573 5.73281 17.781 5.74552 17.6048C5.75822 17.4285 5.8195 17.2593 5.92254 17.1158C7.82004 14.4324 10.235 12.3241 13.11 10.8483C19.1284 7.74325 26.8334 7.72409 32.8709 10.8291C35.7459 12.3049 38.1609 14.3941 40.0584 17.0583C40.1319 17.1613 40.1843 17.2778 40.2126 17.4012C40.2408 17.5245 40.2444 17.6523 40.223 17.777C40.2016 17.9018 40.1557 18.021 40.088 18.1279C40.0203 18.2349 39.932 18.3273 39.8284 18.3999C39.3875 18.7066 38.7934 18.6108 38.4867 18.1699C36.8082 15.794 34.5787 13.8604 31.9892 12.5349C26.4884 9.71742 19.4542 9.71742 13.9725 12.5541C11.3659 13.8958 9.18087 15.8124 7.45587 18.2274C7.30254 18.4958 7.01504 18.6299 6.70837 18.6299ZM18.6875 41.7641C18.5619 41.7656 18.4372 41.7408 18.3217 41.6913C18.2062 41.6418 18.1023 41.5687 18.0167 41.4766C16.3492 39.8091 15.4484 38.7358 14.1642 36.4166C12.8417 34.0591 12.1517 31.1841 12.1517 28.0983C12.1517 22.4058 17.02 17.7674 23 17.7674C28.98 17.7674 33.8484 22.4058 33.8484 28.0983C33.8484 28.6349 33.4267 29.0566 32.89 29.0566C32.3534 29.0566 31.9317 28.6349 31.9317 28.0983C31.9317 23.4599 27.9259 19.6841 23 19.6841C18.0742 19.6841 14.0684 23.4599 14.0684 28.0983C14.0684 30.8583 14.6817 33.4074 15.8509 35.4774C17.0775 37.6816 17.9209 38.6208 19.3967 40.1158C19.7609 40.4991 19.7609 41.0933 19.3967 41.4766C19.1859 41.6683 18.9367 41.7641 18.6875 41.7641ZM32.43 38.2183C30.1492 38.2183 28.1367 37.6432 26.4884 36.5124C23.6325 34.5766 21.9267 31.4333 21.9267 28.0983C21.9267 27.5616 22.3484 27.1399 22.885 27.1399C23.4217 27.1399 23.8434 27.5616 23.8434 28.0983C23.8434 30.8008 25.2234 33.3499 27.5617 34.9216C28.9225 35.8416 30.5134 36.2824 32.43 36.2824C32.89 36.2824 33.6567 36.2249 34.4234 36.0908C34.9409 35.9949 35.4392 36.3399 35.535 36.8766C35.6309 37.3941 35.2859 37.8924 34.7492 37.9883C33.6567 38.1991 32.6984 38.2183 32.43 38.2183ZM28.5775 42.1666C28.5009 42.1666 28.405 42.1474 28.3284 42.1283C25.2809 41.2849 23.2875 40.1541 21.1984 38.1032C19.8745 36.796 18.8247 35.2378 18.1106 33.5199C17.3964 31.8019 17.0322 29.9587 17.0392 28.0983C17.0392 24.9933 19.6842 22.4633 22.9425 22.4633C26.2009 22.4633 28.8459 24.9933 28.8459 28.0983C28.8459 30.1491 30.6284 31.8166 32.8325 31.8166C35.0367 31.8166 36.8192 30.1491 36.8192 28.0983C36.8192 20.8724 30.59 15.0074 22.9234 15.0074C17.48 15.0074 12.4967 18.0358 10.2542 22.7316C9.50671 24.2841 9.12338 26.1049 9.12338 28.0983C9.12338 29.5933 9.25754 31.9508 10.4075 35.0174C10.5992 35.5158 10.35 36.0716 9.85171 36.2441C9.35337 36.4358 8.79754 36.1674 8.62504 35.6883C7.70147 33.2642 7.22734 30.6922 7.22587 28.0983C7.22587 25.7983 7.66671 23.7091 8.52921 21.8883C11.0784 16.5408 16.7325 13.0716 22.9234 13.0716C31.6442 13.0716 38.7359 19.7991 38.7359 28.0791C38.7359 31.1841 36.0909 33.7141 32.8325 33.7141C29.5742 33.7141 26.9292 31.1841 26.9292 28.0791C26.9292 26.0282 25.1467 24.3608 22.9425 24.3608C20.7384 24.3608 18.9559 26.0282 18.9559 28.0791C18.9559 31.3566 20.2209 34.4233 22.54 36.7233C24.3609 38.5249 26.105 39.5216 28.8075 40.2691C29.325 40.4033 29.6125 40.9399 29.4784 41.4383C29.3825 41.8791 28.98 42.1666 28.5775 42.1666Z" fill="#032AB4"/>
</svg>
