<svg width="67" height="66" viewBox="0 0 67 66" fill="none" xmlns="http://www.w3.org/2000/svg">
<g clip-path="url(#clip0_516_5446)">
<path d="M65.7255 0.0627613C65.6576 0.0627613 65.6041 0.0418408 65.5505 0H1.51729C0.182075 0.313806 0.0142804 0.519524 0 1.88632V2.07809C0 15.7147 0 29.3479 0.0035701 42.981C0.0035701 43.2146 0 43.4482 0.0392711 43.6853C0.203496 44.7139 0.74972 45.2299 1.81361 45.3206C2.29557 45.3624 2.77754 45.3415 3.2595 45.3415C18.6466 45.3415 34.0337 45.345 49.4208 45.3415C54.5368 45.3415 59.6492 45.352 64.7651 45.338C66.2003 45.3311 66.5859 45.0417 67 43.7516V1.41561C66.8893 0.6834 66.6716 0.0488143 65.7255 0.0627613ZM59.9241 3.66107C58.9459 4.44908 58.0926 5.13945 57.2358 5.82634C49.5458 11.9769 41.8522 18.1206 34.173 24.2851C33.6946 24.6687 33.3983 24.6896 32.9091 24.2956C24.5016 17.5453 16.0761 10.8159 7.65786 4.08297C7.52576 3.97488 7.40795 3.85284 7.20088 3.66107H59.9241ZM62.5695 41.4364C43.2053 41.4189 23.8411 41.4189 4.47333 41.4259C4.05563 41.4259 3.75217 41.4643 3.75574 40.8541C3.77716 29.2746 3.77002 17.6952 3.77002 6.11574V5.61713C5.11595 6.71197 6.34763 7.71615 7.58288 8.72033C7.56146 8.95394 7.52576 9.18755 7.52576 9.42116C7.52219 13.281 7.53647 17.1408 7.50434 21.0006C7.50077 21.6352 7.69356 21.7851 8.31832 21.7712C10.1177 21.7293 11.917 21.7363 13.7199 21.7607C15.2122 21.7816 16.1368 23.0578 15.5763 24.2956C15.2265 25.0661 14.5803 25.3974 13.7306 25.3974C11.9277 25.3904 10.1284 25.4218 8.32903 25.3834C7.70784 25.3695 7.45793 25.5159 7.50791 26.1575C7.56503 26.8374 7.56146 27.5313 7.50791 28.2147C7.4615 28.8458 7.63287 29.1212 8.33261 29.048C8.9181 28.9887 9.51788 29.0201 10.1105 29.041C11.228 29.0829 12.0277 29.8534 12.0205 30.8506C12.0134 31.8583 11.2172 32.6254 10.1034 32.6637C9.42148 32.6882 8.7396 32.6882 8.06128 32.6637C7.67571 32.6533 7.50791 32.7544 7.51505 33.1623C7.53647 34.5361 7.5329 35.9099 7.51505 37.2802C7.51505 37.6846 7.67928 37.8206 8.06128 37.7858C8.19337 37.7753 8.32547 37.7858 8.45756 37.7858H58.6567C59.2684 37.7858 59.5742 37.4847 59.5742 36.8827C59.5742 27.7684 59.5742 18.654 59.5742 9.53971C59.5742 9.26426 59.6349 8.98183 59.5064 8.71684C60.7273 7.71963 61.9519 6.72243 63.1907 5.71127C63.3656 5.97627 63.2978 6.19593 63.2978 6.39467C63.2978 17.8242 63.2978 29.2537 63.3121 40.6832C63.3121 41.2446 63.205 41.4364 62.5731 41.4364H62.5695Z" fill="#032AB4"/>
<path d="M59.5706 9.53967C59.5706 18.654 59.5706 27.7683 59.5706 36.8827C59.5706 37.4847 59.2648 37.7857 58.6531 37.7857H8.45756C8.32547 37.7857 8.19338 37.7753 8.06128 37.7857C7.67928 37.8206 7.51149 37.6846 7.51506 37.2801C7.53291 35.9099 7.53648 34.5361 7.51506 33.1623C7.50792 32.7544 7.67571 32.6532 8.06128 32.6637C8.7396 32.6881 9.42149 32.6881 10.1034 32.6637C11.2172 32.6253 12.0134 31.8583 12.0205 30.8506C12.0277 29.8534 11.228 29.0828 10.1105 29.041C9.51788 29.0201 8.91811 28.9887 8.33261 29.048C7.63287 29.1212 7.46151 28.8457 7.50792 28.2146C7.56147 27.5312 7.56504 26.8374 7.50792 26.1575C7.45794 25.5159 7.70784 25.3695 8.32904 25.3834C10.1284 25.4218 11.9277 25.3904 13.7306 25.3973C14.5803 25.3973 15.2265 25.0661 15.5763 24.2955C16.1368 23.0577 15.2122 21.7816 13.7199 21.7607C11.917 21.7363 10.1177 21.7293 8.31833 21.7711C7.69356 21.7851 7.50078 21.6352 7.50435 21.0006C7.53648 17.1408 7.5222 13.2809 7.52577 9.42112C7.52577 9.18751 7.56147 8.9539 7.58289 8.72028C9.89988 10.5578 12.2204 12.3848 14.5267 14.2293C20.3888 18.912 26.2438 23.5982 32.1023 28.2809C33.1448 29.1142 33.9302 29.1247 34.9834 28.2809C42.9161 21.942 50.8418 15.6031 58.7745 9.26421C59.0101 9.07244 59.26 8.89811 59.5028 8.7168C59.6313 8.98179 59.5706 9.26421 59.5706 9.53967Z" fill="#0353C2"/>
<path d="M67 61.5095C66.4395 62.5451 65.5363 62.8101 64.3796 62.7996C60.4489 62.7543 56.5218 62.7822 52.5911 62.7822C52.2377 62.7822 51.8878 62.7822 51.5486 62.6706C50.7311 62.4056 50.1884 61.5932 50.2884 60.7738C50.3884 59.923 51.0524 59.2675 51.9199 59.1769C52.1377 59.1525 52.359 59.1525 52.5768 59.1525C56.6146 59.1525 60.656 59.1525 64.6937 59.1525C66.0504 59.1525 66.5002 59.4419 66.9964 60.6099V61.5095H67Z" fill="#032AB4"/>
<path d="M39.7459 55.2822C39.7459 54.557 39.7316 53.9572 39.7459 53.361C39.7816 52.2313 40.5563 51.4538 41.6238 51.4607C42.6769 51.4677 43.4124 52.2104 43.4517 53.3296C43.4695 53.8422 43.4659 54.3582 43.4552 54.8708C43.4517 55.1776 43.5373 55.2683 43.8337 55.0939C44.2656 54.8394 44.7048 54.5953 45.1439 54.3617C46.1721 53.8143 47.2395 54.0584 47.775 54.951C48.3141 55.8505 48.0107 56.8931 47.0217 57.4858C46.5184 57.7857 45.9971 58.0611 45.3938 58.3959C46.0435 58.7724 46.6505 59.0932 47.2252 59.4593C47.9071 59.8952 48.182 60.6936 47.9643 61.4328C47.7429 62.1859 47.0824 62.709 46.2827 62.7543C45.7044 62.7857 45.2296 62.5067 44.7547 62.2382C43.8884 61.7524 43.4552 61.9965 43.4552 62.9705C43.4552 63.1832 43.4552 63.3993 43.4445 63.612C43.3731 64.6267 42.6127 65.3554 41.6202 65.3624C40.6384 65.3693 39.8316 64.6511 39.7602 63.6434C39.7138 62.9844 39.753 62.3184 39.753 61.5932C39.1283 61.7919 38.6606 62.1441 38.1536 62.4091C37.0398 62.9914 35.9616 62.7682 35.4154 61.8233C34.8727 60.8854 35.2404 59.8673 36.3436 59.2431C36.8113 58.9781 37.279 58.7132 37.843 58.3959C37.2468 58.0646 36.7399 57.7892 36.2365 57.5033C35.2333 56.9245 34.8977 55.8924 35.4118 54.9823C35.9187 54.0828 37.0076 53.8038 38.0322 54.3338C38.5713 54.6093 39.0926 54.9161 39.7423 55.2752L39.7459 55.2822Z" fill="#032AB4"/>
<path d="M8.36831 61.5269C8.36831 62.2591 8.38259 62.8798 8.36831 63.4969C8.33975 64.5708 7.54719 65.3553 6.51186 65.3553C5.48724 65.3553 4.69468 64.5604 4.66969 63.4899C4.65541 62.8728 4.66969 62.2556 4.66969 61.5827C4.02707 61.7814 3.54154 62.1545 3.00603 62.43C1.92786 62.9809 0.860397 62.7473 0.328453 61.8198C-0.210632 60.8819 0.124957 59.8812 1.18528 59.2745C1.67438 58.9955 2.16705 58.7201 2.75255 58.3923C2.17062 58.0681 1.66724 57.7926 1.171 57.5102C0.124957 56.9139 -0.207062 55.8819 0.339163 54.9509C0.867537 54.0513 1.93143 53.8003 2.97032 54.3442C3.50584 54.6232 4.02707 54.9265 4.66612 55.2787C4.66612 54.5639 4.65541 53.9537 4.66612 53.3435C4.68754 52.2069 5.44797 51.4433 6.53685 51.4537C7.58646 51.4642 8.34332 52.2313 8.36474 53.3261C8.37902 53.9398 8.36474 54.5534 8.36474 55.2787C8.98237 54.9439 9.50717 54.6511 10.0427 54.3721C11.0852 53.8247 12.1526 54.0583 12.6846 54.937C13.2415 55.8575 12.9202 56.9035 11.8849 57.5102C11.385 57.8031 10.8781 58.0785 10.2926 58.4098C10.8781 58.741 11.385 59.0199 11.8884 59.3163C12.913 59.923 13.2308 60.976 12.6738 61.893C12.1419 62.7647 11.0602 62.9948 10.0248 62.4439C9.50717 62.1685 9.00022 61.8825 8.36831 61.5339V61.5269Z" fill="#032AB4"/>
<path d="M22.2024 55.2822C22.2024 54.557 22.1917 53.9433 22.2024 53.3296C22.2274 52.2453 22.9986 51.4677 24.041 51.4607C25.1014 51.4538 25.8689 52.2069 25.9011 53.2983C25.9153 53.8143 25.9153 54.3268 25.9011 54.8429C25.8904 55.1846 25.9796 55.2787 26.3045 55.0835C26.7329 54.8254 27.172 54.5814 27.6147 54.3478C28.6358 53.8073 29.7139 54.0688 30.2387 54.9754C30.7707 55.8924 30.4601 56.9001 29.4462 57.4998C28.9464 57.7961 28.4323 58.0716 27.8432 58.3994C28.5037 58.7829 29.1177 59.1037 29.6925 59.4837C30.3637 59.9265 30.6207 60.6727 30.4137 61.4014C30.1995 62.1615 29.6282 62.6532 28.8285 62.7473C28.3501 62.8066 27.9253 62.6427 27.5147 62.4161C27.0399 62.1511 26.558 61.8931 26.0796 61.6385C26.0474 61.6211 25.9975 61.642 25.8975 61.6525C25.8975 62.2627 25.9082 62.8798 25.8975 63.497C25.8725 64.5813 25.0978 65.3658 24.0625 65.3693C23.0307 65.3728 22.231 64.5883 22.2024 63.5179C22.1846 62.8972 22.2024 62.2766 22.2024 61.6037C21.592 61.7885 21.1243 62.1441 20.6137 62.4126C19.4963 62.9984 18.4181 62.7822 17.8719 61.8442C17.3185 60.8959 17.6791 59.8742 18.7823 59.2571C19.2535 58.9921 19.7248 58.7306 20.3031 58.4098C19.7105 58.0786 19.2036 57.8031 18.7073 57.5172C17.672 56.921 17.34 55.875 17.8898 54.951C18.4146 54.0653 19.4927 53.8247 20.5316 54.3687C21.0636 54.6476 21.5884 54.944 22.206 55.2857L22.2024 55.2822Z" fill="#032AB4"/>
</g>
<defs>
<clipPath id="clip0_516_5446">
<rect width="67" height="65.3659" fill="white"/>
</clipPath>
</defs>
</svg>
