<svg width="34" height="34" viewBox="0 0 34 34" fill="none" xmlns="http://www.w3.org/2000/svg">
<path d="M31.6767 11.716L31.2658 7.79183C30.6708 3.5135 28.73 1.771 24.5792 1.771H21.2358H19.1392H14.8325H12.7358H9.33583C5.17083 1.771 3.24416 3.5135 2.63499 7.83433L2.25249 11.7302C2.11083 13.246 2.52166 14.7193 3.41416 15.8668C4.49083 17.2693 6.14833 18.0627 7.98999 18.0627C9.77499 18.0627 11.4892 17.1702 12.5658 15.7393C13.5292 17.1702 15.1725 18.0627 17 18.0627C18.8275 18.0627 20.4283 17.2127 21.4058 15.796C22.4967 17.1985 24.1825 18.0627 25.9392 18.0627C27.8233 18.0627 29.5233 17.2268 30.5858 15.7535C31.4358 14.6202 31.8183 13.1893 31.6767 11.716Z" fill="#292D32"/>
<path d="M16.0791 23.6017C14.2799 23.7859 12.9199 25.3159 12.9199 27.1292V31.0109C12.9199 31.3934 13.2316 31.705 13.6141 31.705H20.3716C20.7541 31.705 21.0658 31.3934 21.0658 31.0109V27.625C21.0799 24.6642 19.3374 23.2617 16.0791 23.6017Z" fill="#292D32"/>
<path d="M30.2744 20.4001V24.6218C30.2744 28.5318 27.1011 31.7051 23.1911 31.7051C22.8086 31.7051 22.4969 31.3934 22.4969 31.0109V27.6251C22.4969 25.8118 21.9444 24.3951 20.8677 23.4318C19.9186 22.5676 18.6294 22.1426 17.0286 22.1426C16.6744 22.1426 16.3202 22.1568 15.9377 22.1993C13.4161 22.4543 11.5036 24.5793 11.5036 27.1293V31.0109C11.5036 31.3934 11.1919 31.7051 10.8094 31.7051C6.89941 31.7051 3.72607 28.5318 3.72607 24.6218V20.4284C3.72607 19.4368 4.70357 18.7709 5.62441 19.0968C6.00691 19.2243 6.38941 19.3234 6.78607 19.3801C6.95607 19.4084 7.14024 19.4368 7.31024 19.4368C7.53691 19.4651 7.76357 19.4793 7.99024 19.4793C9.63357 19.4793 11.2486 18.8701 12.5236 17.8218C13.7419 18.8701 15.3286 19.4793 17.0002 19.4793C18.6861 19.4793 20.2444 18.8984 21.4627 17.8501C22.7377 18.8843 24.3244 19.4793 25.9394 19.4793C26.1944 19.4793 26.4494 19.4651 26.6902 19.4368C26.8602 19.4226 27.0161 19.4084 27.1719 19.3801C27.6111 19.3234 28.0077 19.1959 28.4044 19.0684C29.3252 18.7568 30.2744 19.4368 30.2744 20.4001Z" fill="#292D32"/>
</svg>
