<svg width="123" height="116" viewBox="0 0 123 116" fill="none" xmlns="http://www.w3.org/2000/svg">
<g filter="url(#filter0_d_508_4702)">
<path d="M72.1914 61.6675C67.5437 62.1022 57.1649 62.9505 54.8927 62.9505H41.014C41.014 62.9505 40.0683 60.0895 39.5616 55.2526C39.0549 50.4157 39.8876 40.5511 41.0705 38.9907C42.2534 37.4302 46.6478 36.3461 48.5069 33.5428C50.366 30.7394 51.8813 24.6628 56.6194 22.3166C61.3575 19.9703 70.3948 19.3288 75.559 19.3288C80.7231 19.3288 89.7668 19.9847 94.4985 22.3214C99.2302 24.658 100.752 30.7394 102.611 33.5476C104.47 36.3557 108.865 37.4302 110.047 38.9907C111.224 40.5511 112.06 50.4157 111.553 55.2526C111.046 60.0895 110.101 62.9505 110.101 62.9505H96.3834C94.1354 62.9505 85.5958 62.1054 80.9481 61.6675M98.7977 62.9505H107.835V65.5165H98.7977V62.9505ZM43.283 62.9505H52.3203V65.5165H43.283V62.9505Z" stroke="white" stroke-width="2.5" stroke-linecap="round" stroke-linejoin="round" shape-rendering="crispEdges"/>
</g>
<path d="M103.602 40.8988C103.593 40.7744 103.538 40.6576 103.447 40.5708C103.355 40.484 103.234 40.4335 103.107 40.4288C101.221 40.3629 99.3054 40.4946 95.9078 41.477C94.1744 41.9734 92.5466 42.7728 91.1029 43.8367C90.7387 44.1156 90.8681 44.8693 91.3249 44.9492C94.1254 45.2714 96.9426 45.4336 99.7623 45.4349C101.454 45.4349 103.2 44.9648 103.524 43.4857C103.689 42.6329 103.716 41.7598 103.602 40.8988ZM47.512 40.8988C47.521 40.7744 47.5765 40.6576 47.6679 40.5708C47.7593 40.484 47.8801 40.4335 48.0072 40.4288C49.8937 40.3629 51.809 40.4946 55.2066 41.477C56.94 41.9734 58.5678 42.7728 60.0115 43.8367C60.3757 44.1156 60.2463 44.8693 59.7895 44.9492C56.989 45.2714 54.1718 45.4336 51.3521 45.4349C49.6605 45.4349 47.9146 44.9648 47.5903 43.4857C47.425 42.6329 47.3986 41.7598 47.512 40.8988Z" fill="white"/>
<path d="M104.09 32.3819H106.684M44.4307 32.3819H47.0246M46.7003 35.3941C46.7003 35.3941 54.2145 33.4916 75.5572 33.4916C96.8999 33.4916 104.414 35.3941 104.414 35.3941" stroke="white" stroke-width="2.5" stroke-linecap="round" stroke-linejoin="round"/>
<g filter="url(#filter1_d_508_4702)">
<path d="M14.2021 6.27575L11.3363 7.91203C10.9082 20.5681 13.8389 24.6614 22.8749 28.3655C31.6255 25.6005 34.3303 21.0628 35.394 7.91203L32.3019 6.27575" stroke="white" stroke-width="2.5" stroke-linecap="round"/>
</g>
<g filter="url(#filter2_d_508_4702)">
<path d="M75.5572 55.4776C75.5572 55.4776 75.5571 63.6688 68.6601 86.2257C62.7071 105.695 36.8912 104.747 29.9939 78.4337C23.0966 52.12 23.3461 27.3614 23.3461 27.3614" stroke="white" stroke-width="2.5"/>
</g>
<path d="M83.416 49.387L82.4159 49.0888C82.0601 48.9827 81.7902 48.6993 81.6496 48.3556C81.5111 48.0173 81.5029 47.6328 81.6753 47.3104L82.1684 46.3882C82.1973 46.3339 82.2078 46.2717 82.1985 46.211C82.1892 46.1502 82.1606 46.094 82.1168 46.0508L80.9958 44.9262C80.9526 44.8825 80.8963 44.8539 80.8355 44.8446C80.7747 44.8353 80.7125 44.8459 80.6581 44.8747L79.7633 45.3524C79.4295 45.5307 79.031 45.5188 78.6824 45.3716C78.3389 45.2266 78.0557 44.9552 77.9478 44.5983L77.6516 43.6189C77.6318 43.5618 77.5943 43.5124 77.5446 43.4779C77.4949 43.4433 77.4354 43.4255 77.3749 43.4268H75.7896C75.7287 43.4271 75.6695 43.4468 75.6205 43.483C75.5716 43.5193 75.5355 43.5702 75.5176 43.6283L75.2232 44.5987C75.1142 44.9581 74.8282 45.2309 74.4817 45.376C74.1305 45.5231 73.7293 45.5337 73.3942 45.3529L72.5251 44.8841C72.4708 44.8552 72.4086 44.8447 72.3477 44.854C72.2869 44.8633 72.2307 44.8919 72.1874 44.9356L71.0477 46.0461C71.0039 46.0893 70.9753 46.1455 70.966 46.2063C70.9567 46.267 70.9672 46.3292 70.9961 46.3835L71.4658 47.2525C71.6465 47.5867 71.6356 47.987 71.4882 48.3371C71.3434 48.681 71.0718 48.9646 70.7146 49.0724L69.7344 49.3683C69.6762 49.3862 69.6253 49.4223 69.589 49.4712C69.5527 49.52 69.533 49.5792 69.5327 49.64V51.2238C69.533 51.2847 69.5527 51.3438 69.589 51.3927C69.6253 51.4416 69.6762 51.4776 69.7344 51.4956L70.7308 51.7945C71.0841 51.9005 71.3537 52.1793 71.499 52.5183C71.6464 52.8623 71.6606 53.2562 71.4872 53.5879L70.9961 54.5272C70.9672 54.5815 70.9567 54.6437 70.966 54.7044C70.9753 54.7652 71.0039 54.8214 71.0477 54.8646L72.1687 55.9845C72.2119 56.0282 72.2682 56.0568 72.329 56.0661C72.3898 56.0754 72.452 56.0648 72.5064 56.036L73.4458 55.5349C73.7643 55.365 74.1439 55.3729 74.4779 55.5097C74.8178 55.6489 75.0977 55.9163 75.2023 56.2685L75.5035 57.2824C75.5215 57.3405 75.5575 57.3914 75.6065 57.4277C75.6554 57.4639 75.7146 57.4836 75.7755 57.4839H77.3608C77.4217 57.4836 77.481 57.4639 77.5299 57.4277C77.5788 57.3914 77.6149 57.3405 77.6329 57.2824L77.9363 56.258C78.0395 55.9093 78.3159 55.644 78.652 55.5053C78.9841 55.3682 79.362 55.3599 79.679 55.5289L80.63 56.036C80.6843 56.0648 80.7465 56.0754 80.8074 56.0661C80.8682 56.0568 80.9244 56.0282 80.9677 55.9845L82.0887 54.8646C82.1324 54.8214 82.1611 54.7652 82.1704 54.7044C82.1797 54.6437 82.1691 54.5815 82.1402 54.5272L81.6361 53.5866C81.4649 53.2672 81.4736 52.8858 81.6127 52.5511C81.7522 52.2153 82.0177 51.9392 82.3664 51.8359L83.3879 51.5331C83.4461 51.5151 83.497 51.4791 83.5333 51.4302C83.5695 51.3813 83.5893 51.3221 83.5895 51.2613V49.6635C83.5923 49.6052 83.5772 49.5475 83.5461 49.4981C83.5151 49.4487 83.4697 49.4099 83.416 49.387ZM76.5822 53.0325C76.072 53.0325 75.5733 52.8813 75.1491 52.5982C74.7248 52.315 74.3942 51.9125 74.199 51.4416C74.0037 50.9707 73.9526 50.4525 74.0522 49.9526C74.1517 49.4527 74.3974 48.9935 74.7582 48.6331C75.1189 48.2726 75.5786 48.0272 76.079 47.9277C76.5794 47.8283 77.0981 47.8793 77.5694 48.0744C78.0408 48.2695 78.4437 48.5998 78.7272 49.0236C79.0106 49.4474 79.1619 49.9456 79.1619 50.4554C79.1619 51.1389 78.8901 51.7944 78.4063 52.2777C77.9226 52.761 77.2664 53.0325 76.5822 53.0325Z" fill="white"/>
<path d="M77.5654 49.668C77.2809 49.539 76.9559 49.465 76.6213 49.453C76.2866 49.441 75.9533 49.4913 75.6528 49.5993C75.3522 49.7073 75.0944 49.8694 74.9037 50.0702C74.713 50.271 74.5956 50.5039 74.5627 50.747C74.5297 50.9901 74.5824 51.2353 74.7155 51.4594" stroke="white" stroke-width="2.5"/>
<path d="M18.3246 16.2687H20.5721L21.649 19.3288L24.0838 11.2962L25.2075 16.2687H27.3613" stroke="white"/>
<defs>
<filter id="filter0_d_508_4702" x="28.1144" y="13.0533" width="94.8856" height="68.7795" filterUnits="userSpaceOnUse" color-interpolation-filters="sRGB">
<feFlood flood-opacity="0" result="BackgroundImageFix"/>
<feColorMatrix in="SourceAlpha" type="matrix" values="0 0 0 0 0 0 0 0 0 0 0 0 0 0 0 0 0 0 127 0" result="hardAlpha"/>
<feOffset dy="5"/>
<feGaussianBlur stdDeviation="5"/>
<feComposite in2="hardAlpha" operator="out"/>
<feColorMatrix type="matrix" values="0 0 0 0 0 0 0 0 0 0 0 0 0 0 0 0 0 0 0.25 0"/>
<feBlend mode="normal" in2="BackgroundImageFix" result="effect1_dropShadow_508_4702"/>
<feBlend mode="normal" in="SourceGraphic" in2="effect1_dropShadow_508_4702" result="shape"/>
</filter>
<filter id="filter1_d_508_4702" x="0" y="0" width="46.7524" height="44.7605" filterUnits="userSpaceOnUse" color-interpolation-filters="sRGB">
<feFlood flood-opacity="0" result="BackgroundImageFix"/>
<feColorMatrix in="SourceAlpha" type="matrix" values="0 0 0 0 0 0 0 0 0 0 0 0 0 0 0 0 0 0 127 0" result="hardAlpha"/>
<feOffset dy="5"/>
<feGaussianBlur stdDeviation="5"/>
<feComposite in2="hardAlpha" operator="out"/>
<feColorMatrix type="matrix" values="0 0 0 0 0 0 0 0 0 0 0 0 0 0 0 0 0 0 0.25 0"/>
<feBlend mode="normal" in2="BackgroundImageFix" result="effect1_dropShadow_508_4702"/>
<feBlend mode="normal" in="SourceGraphic" in2="effect1_dropShadow_508_4702" result="shape"/>
</filter>
<filter id="filter2_d_508_4702" x="12.0491" y="22.3289" width="74.804" height="93.643" filterUnits="userSpaceOnUse" color-interpolation-filters="sRGB">
<feFlood flood-opacity="0" result="BackgroundImageFix"/>
<feColorMatrix in="SourceAlpha" type="matrix" values="0 0 0 0 0 0 0 0 0 0 0 0 0 0 0 0 0 0 127 0" result="hardAlpha"/>
<feOffset dy="5"/>
<feGaussianBlur stdDeviation="5"/>
<feComposite in2="hardAlpha" operator="out"/>
<feColorMatrix type="matrix" values="0 0 0 0 0 0 0 0 0 0 0 0 0 0 0 0 0 0 0.25 0"/>
<feBlend mode="normal" in2="BackgroundImageFix" result="effect1_dropShadow_508_4702"/>
<feBlend mode="normal" in="SourceGraphic" in2="effect1_dropShadow_508_4702" result="shape"/>
</filter>
</defs>
</svg>
