<svg width="37" height="37" viewBox="0 0 37 37" fill="none" xmlns="http://www.w3.org/2000/svg">
<path opacity="0.4" d="M33.9166 12.0406V21.4293L31.4037 19.271C30.2012 18.2381 28.2587 18.2381 27.0562 19.271L20.6428 24.7747C19.4403 25.8077 17.4978 25.8077 16.2953 24.7747L15.7712 24.3431C14.6766 23.3872 12.9345 23.2947 11.7012 24.1272L4.11617 29.2147L3.94659 29.3381C3.37617 28.1047 3.08325 26.6402 3.08325 24.9597V12.0406C3.08325 6.42891 6.42867 3.0835 12.0403 3.0835H24.9595C30.5712 3.0835 33.9166 6.42891 33.9166 12.0406Z" fill="#BEBEBE"/>
<path d="M13.875 16.0024C15.9014 16.0024 17.5441 14.3597 17.5441 12.3332C17.5441 10.3068 15.9014 8.66406 13.875 8.66406C11.8486 8.66406 10.2058 10.3068 10.2058 12.3332C10.2058 14.3597 11.8486 16.0024 13.875 16.0024Z" fill="#BEBEBE"/>
<path d="M33.9168 21.4291V24.9595C33.9168 30.5712 30.5714 33.9166 24.9597 33.9166H12.0405C8.10928 33.9166 5.27261 32.267 3.94678 29.3379L4.11636 29.2145L11.7014 24.127C12.9347 23.2945 14.6768 23.387 15.7714 24.3429L16.2955 24.7745C17.498 25.8074 19.4405 25.8074 20.643 24.7745L27.0564 19.2708C28.2589 18.2379 30.2014 18.2379 31.4039 19.2708L33.9168 21.4291Z" fill="#BEBEBE"/>
</svg>
