<svg width="67" height="71" viewBox="0 0 67 71" fill="none" xmlns="http://www.w3.org/2000/svg">
<g clip-path="url(#clip0_516_5483)">
<path d="M41.6984 70.6085C41.4937 70.602 41.2891 70.5954 41.0845 70.5954C31.8794 70.5921 22.6743 70.5889 13.4693 70.5889L13.4528 70.5954L13.3009 70.6184L13.192 70.6053C8.78587 70.1363 5.57779 66.6272 5.56788 62.2588C5.55468 55.4013 5.55468 42.8702 5.56788 36.0127C5.57779 31.3852 9.26114 27.699 13.9544 27.6203H13.9841V27.5974C13.9841 26.9382 13.9841 26.2757 13.9808 25.6165C13.9775 24.0325 13.9709 22.396 13.994 20.7792C14.0964 14.066 19.4465 8.2448 26.1729 7.52986C26.6844 7.47411 27.2026 7.44788 27.7142 7.44788C35.3911 7.44788 41.4508 13.4626 41.5069 21.1432C41.5234 23.7505 41.5201 25.7641 41.5003 27.6334C44.7381 27.6728 47.2102 29.1191 48.8472 31.9362C49.174 32.497 49.273 33.025 49.1443 33.5038C49.0651 33.7924 48.8637 34.1958 48.3423 34.4942C48.0716 34.6517 47.7845 34.7304 47.494 34.7304C47.0452 34.7304 46.4016 34.5434 45.8768 33.6448C44.8569 31.8936 43.3948 31.0442 41.4013 31.0442C41.4013 31.0442 30.15 31.0409 26.5128 31.0409C22.3872 31.0409 18.2616 31.0409 14.136 31.0474C11.1193 31.054 9.0136 33.1628 9.0103 36.1734C9.0037 42.9555 9.0037 55.3128 9.0103 62.0949C9.0103 65.0136 10.9873 67.0732 13.9214 67.2208C14.202 67.2339 14.499 67.2405 14.8885 67.2405C15.07 67.2405 15.806 67.2339 15.9908 67.2339H29.6549C33.4636 67.2339 37.2724 67.2339 41.0779 67.2405C43.0615 67.2405 44.4675 66.5878 45.517 65.1875C46.1573 64.3348 46.4709 63.3247 46.4742 62.0981C46.4742 61.921 46.4742 61.7472 46.4742 61.5701C46.4742 61.2094 46.4742 60.8486 46.4841 60.4879C46.5072 59.5565 47.1574 58.8875 48.1013 58.8317C48.1442 58.8317 48.1739 58.8317 48.2069 58.8317C49.0948 58.8317 49.7615 59.4155 49.8671 60.2878C50.2169 63.141 49.5866 65.6564 48.0419 67.5651C46.6293 69.3131 44.5467 70.3954 42.1769 70.6217H42.1307C42.1307 70.6217 41.8238 70.6217 41.6918 70.6151L41.6984 70.6085ZM19.2385 27.6105C19.8722 27.6105 20.463 27.617 21.0373 27.6302C21.0109 25.6329 20.9944 23.2913 21.0439 20.8874C21.1099 17.3849 24.0572 14.4858 27.6152 14.4267H27.734C31.48 14.4267 34.4406 17.3914 34.4703 21.176C34.4868 23.0552 34.4868 25.1115 34.4703 27.6269C34.8267 27.6203 35.1865 27.617 35.5463 27.617C35.873 27.617 36.1965 27.617 36.5232 27.6203C36.8467 27.6203 37.1668 27.6236 37.4902 27.6236C37.6916 27.6236 37.9127 27.6236 38.0744 27.617C38.0777 27.4498 38.0744 27.2301 38.0744 27.0497C38.0612 26.197 38.0744 25.3378 38.0909 24.508C38.1206 22.8683 38.1503 21.3203 37.9655 19.7625C37.3813 14.8859 33.2062 11.0554 28.2555 10.852C28.1102 10.8455 27.9683 10.8422 27.8264 10.8422C22.978 10.8422 18.7071 14.2103 17.6774 18.8476C17.4266 19.979 17.4365 21.14 17.4497 22.2616C17.4563 22.7994 17.4596 23.3045 17.4365 23.8029C17.4365 24.2555 17.4365 24.6884 17.4398 25.1016C17.4431 25.974 17.4464 26.807 17.4332 27.6236C18.047 27.6138 18.651 27.6105 19.2517 27.6105H19.2385ZM27.7439 27.617C28.8397 27.617 29.9354 27.6203 31.0312 27.6269C31.0246 26.5906 31.0246 25.5608 31.0279 24.5277C31.0279 23.3864 31.0312 22.2452 31.0213 21.1039C31.0048 19.346 29.5163 17.8539 27.7703 17.844C25.9682 17.844 24.4962 19.3067 24.4665 21.1039C24.4533 21.7926 24.4566 22.4977 24.4599 23.1798C24.4599 23.5635 24.4599 23.9505 24.4599 24.3342C24.4599 24.6655 24.4599 25 24.4599 25.3378C24.4599 26.0888 24.4665 26.8628 24.4533 27.6302C25.5524 27.6236 26.6448 27.6203 27.7373 27.6203L27.7439 27.617Z" fill="#0353C2"/>
<path d="M25.1201 63.7509C24.8858 63.7509 24.6514 63.6985 24.4204 63.6001C23.3807 63.1409 23.3874 62.0718 23.3907 61.7209C23.3907 61.1011 23.3907 60.4747 23.3907 59.8516C23.3907 58.8382 23.3874 57.792 23.4006 56.7557C22.9418 56.7688 22.4764 56.7754 22.011 56.7754C21.4071 56.7754 20.7932 56.7622 20.1826 56.7393C17.3739 56.6343 15.0569 54.3026 15.0173 51.5412C14.9711 48.5306 14.9678 45.3626 15.0074 41.86C15.0404 38.8723 17.4366 36.5242 20.4565 36.5144C22.5325 36.5045 24.6085 36.5045 26.6845 36.5045H34.9853L48.316 36.5078C52.6594 36.5078 57.0062 36.5078 61.3496 36.5111C64.3564 36.5111 66.6238 38.4362 66.9902 41.2992L66.9968 41.3517V51.9085L66.9902 51.9577C66.6469 54.6797 64.4488 56.6901 61.7622 56.7393C60.5641 56.7622 59.2967 56.7721 57.6531 56.7721C56.884 56.7721 56.115 56.7721 55.346 56.7688C54.577 56.7688 53.8113 56.7655 53.0423 56.7655C50.1114 56.7655 47.1806 56.7655 44.2498 56.7655C40.6093 56.7655 36.9689 56.7655 33.3284 56.7557C33.1271 56.7557 33.038 56.7918 32.8994 56.9262C31.7211 58.0708 30.5362 59.2121 29.3513 60.3501C28.4206 61.2454 27.4899 62.1407 26.5624 63.0393C26.3281 63.2688 25.833 63.7509 25.1135 63.7509H25.1201ZM44.5963 39.9185C36.6454 39.9185 28.6945 39.9185 20.747 39.9251C19.2221 39.9251 18.4465 40.699 18.4432 42.224C18.4366 45.1494 18.4366 48.0715 18.4432 50.9935C18.4432 52.5907 19.2056 53.3384 20.8328 53.3417C21.483 53.3417 22.1332 53.3417 22.7834 53.3417C23.4336 53.3417 24.0838 53.3417 24.7373 53.3417C26.206 53.3417 26.8331 53.9714 26.8331 55.4471C26.8331 55.9128 26.8331 57.6313 26.8331 58.0216L26.9882 57.874C28.2457 56.6704 29.5428 55.4275 30.797 54.1878C31.3877 53.604 32.0544 53.3318 32.8895 53.3318C38.1373 53.3384 43.3685 53.3417 48.5998 53.3417C52.8145 53.3417 57.0326 53.3417 61.2506 53.3417C62.8084 53.3417 63.6006 52.5579 63.6072 51.0132C63.6171 48.1075 63.6171 45.1559 63.6072 42.247C63.6006 40.6859 62.8282 39.9251 61.2473 39.9218C55.6959 39.9218 50.1477 39.9218 44.593 39.9218L44.5963 39.9185Z" fill="#032AB4"/>
<path d="M53.6029 30.6998C52.9164 30.6998 52.4081 30.2111 52.0418 29.7881C51.3883 29.0338 50.7348 28.2762 50.0846 27.5219C49.0581 26.3314 48.0317 25.141 47.0019 23.957C46.7115 23.6225 46.0415 22.8453 46.5134 21.8253C46.9755 20.8316 47.9657 20.8316 48.3881 20.8316H48.6225C48.903 20.8316 49.1802 20.8316 49.4608 20.8284C49.7446 20.8284 50.0285 20.8251 50.3123 20.8251C50.5962 20.8251 50.8569 20.8251 51.0978 20.8316C49.9625 16.9552 47.969 13.5675 45.1734 10.7536C40.5726 6.11962 34.7802 3.51567 28.8657 3.42056C22.6773 3.44024 16.9971 5.34237 12.4491 8.92363C8.03961 12.3967 4.99986 17.3291 3.89749 22.8125C3.60705 24.2588 3.45192 25.7772 3.43872 27.3284C3.43212 27.6596 3.41892 28.5156 2.6136 29.0141C2.33306 29.1879 2.01951 29.2797 1.70266 29.2797C0.748821 29.2765 0.00291 28.4861 -0.000390494 27.476C-0.010292 25.9379 0.105225 24.4621 0.349462 23.0912C1.62675 15.9058 5.17148 10.0584 10.8813 5.70312C15.8453 1.91853 21.4231 0 27.4564 0C28.4829 0 29.5357 0.0557522 30.5886 0.167257C36.3677 0.777251 41.6749 3.04997 45.9359 6.73618C50.1539 10.3863 53.1606 15.2597 54.636 20.8382C55.2763 20.8284 55.8934 20.8251 56.5106 20.8251H58.8012C59.2269 20.8284 60.2237 20.8284 60.6891 21.845C61.1412 22.8453 60.5009 23.593 60.2303 23.9111C59.1609 25.1442 58.0982 26.3773 57.0354 27.6105L55.1475 29.7979C54.7878 30.2144 54.2861 30.6965 53.6029 30.6965V30.6998ZM51.8503 24.3145C52.4411 24.9999 53.0187 25.6722 53.5963 26.3478L55.3687 24.2916H51.8305L51.8503 24.3178V24.3145Z" fill="#032AB4"/>
<path d="M29.0543 52.3218C28.041 52.3218 27.3479 51.5938 27.3248 50.5115C27.3182 50.2098 27.3182 49.9114 27.3182 49.6064C27.0971 49.7343 26.8793 49.8556 26.6614 49.9802C26.2621 50.2032 25.8759 50.318 25.5096 50.318C24.9188 50.318 24.4171 50.0294 24.1002 49.508C23.79 49.0029 23.8131 48.5569 23.8824 48.2683C24.0012 47.7895 24.3511 47.3763 24.9188 47.0418C25.1465 46.9073 25.3775 46.7728 25.6119 46.6384C25.3808 46.5039 25.1531 46.3695 24.9254 46.2383C24.3577 45.907 24.0078 45.4971 23.8824 45.0216C23.8098 44.7362 23.7834 44.287 24.0903 43.7786C24.4039 43.2539 24.9221 42.9522 25.5096 42.9522C25.8726 42.9522 26.2588 43.0637 26.6515 43.2867C26.8727 43.4113 27.0905 43.5392 27.3149 43.6671C27.3149 43.3949 27.3149 43.126 27.3182 42.8571C27.3314 41.4829 28.1962 40.9713 29.0015 40.9517H29.051C29.8695 40.9517 30.7474 41.46 30.754 42.8833C30.754 43.1424 30.7573 43.4048 30.7573 43.6737C30.9884 43.5425 31.2128 43.4146 31.4438 43.2867C31.8333 43.067 32.2162 42.9555 32.5825 42.9555C33.1799 42.9555 33.7014 43.2605 34.0083 43.7885C34.3978 44.464 34.4077 45.5102 33.1601 46.2481C32.939 46.376 32.7178 46.5072 32.4934 46.6351C32.7475 46.7827 32.9984 46.927 33.2459 47.0746C34.1799 47.6288 34.4968 48.5766 34.0347 49.4325C33.741 49.9868 33.1898 50.318 32.5627 50.318C32.2195 50.318 31.8696 50.2229 31.5296 50.0327C31.2722 49.8917 31.0181 49.7474 30.7573 49.5998C30.7573 49.9048 30.7573 50.2 30.7507 50.4984C30.7342 51.5839 30.051 52.3185 29.0477 52.3251H29.0444L29.0543 52.3218Z" fill="#FEFEFE"/>
<path d="M41.0515 52.3218C40.969 52.3218 40.8865 52.3153 40.8007 52.3054C39.9096 52.1874 39.3386 51.5544 39.3155 50.6591C39.3056 50.3147 39.299 49.9605 39.2957 49.6063C39.1439 49.6916 38.5894 49.9999 38.5894 49.9999C38.2098 50.2065 37.8402 50.3115 37.4804 50.3115C36.8533 50.3115 36.3219 49.9933 36.0216 49.4424C35.5529 48.5635 35.883 47.6255 36.8665 47.0483L37.5827 46.6351C37.3418 46.4973 37.1075 46.3596 36.8731 46.2219C35.8962 45.6447 35.5628 44.7133 36.0183 43.8409C36.3219 43.2736 36.8533 42.9522 37.4837 42.9522C37.8468 42.9522 38.2197 43.0571 38.5927 43.267C38.8303 43.3982 39.068 43.5359 39.3089 43.6737C39.3089 43.3621 39.3089 43.0506 39.3155 42.739C39.3419 41.6764 39.9657 40.991 40.9426 40.9484C40.9723 40.9484 41.002 40.9484 41.0284 40.9484C42.0054 40.9484 42.7117 41.6731 42.7447 42.7095C42.7546 43.0276 42.7579 43.3424 42.7546 43.6638C42.8437 43.6114 42.9394 43.5589 43.0351 43.5097C43.1144 43.4703 43.1936 43.4211 43.2761 43.3719C43.4081 43.2932 43.5566 43.2014 43.7249 43.1227C43.9857 43.0014 44.253 42.9423 44.527 42.9423C45.1739 42.9423 45.7317 43.2834 46.0221 43.8508C46.4545 44.6903 46.2201 45.5627 45.4181 46.071C45.1079 46.2678 44.7976 46.4547 44.4775 46.6416C44.7151 46.7794 44.9494 46.9171 45.1838 47.0549C46.3719 47.7632 46.3752 48.7865 46.0155 49.4457C45.7019 50.0032 45.1706 50.318 44.5534 50.318C44.1936 50.318 43.8207 50.2131 43.4477 49.9999C43.22 49.872 42.9922 49.7408 42.7579 49.6063C42.7579 49.9277 42.7579 50.2393 42.7447 50.5574C42.715 51.597 42.0186 52.3218 41.0582 52.3218H41.0515Z" fill="#FEFEFE"/>
<path d="M52.9828 52.3218C51.9662 52.3218 51.2764 51.5741 51.2665 50.459C51.2632 50.1737 51.2599 49.8917 51.2599 49.5998C50.9959 49.7474 50.7385 49.895 50.481 50.0458C50.1477 50.2393 49.8143 50.3344 49.4876 50.3344C49.108 50.3344 48.7384 50.1999 48.4215 49.9441C47.9859 49.5932 47.7548 49.0849 47.7911 48.5438C47.8307 47.9699 48.1575 47.4517 48.6955 47.127C48.976 46.9565 49.2565 46.7925 49.547 46.6285L49.0222 46.3235C48.5898 46.071 47.9925 45.6611 47.8208 44.9953C47.7152 44.5854 47.7911 44.1689 48.0453 43.7556C48.3621 43.2408 48.8506 42.9554 49.4249 42.9554C49.8176 42.9554 50.2401 43.0866 50.7154 43.3588L51.2632 43.6704C51.2632 43.3949 51.2632 43.126 51.2632 42.8538C51.2764 41.4796 52.1412 40.968 52.9465 40.9484H52.996C53.8178 40.9484 54.6958 41.4534 54.7024 42.8767C54.7024 43.1424 54.7024 43.408 54.7024 43.6769C54.9664 43.5294 55.2238 43.3785 55.4813 43.2309C55.8179 43.0342 56.1579 42.9325 56.4879 42.9325C56.9005 42.9325 57.2932 43.0899 57.6233 43.3883C58.0226 43.7491 58.224 44.2509 58.1778 44.7657C58.1283 45.3167 57.8048 45.8185 57.2866 46.1366C57.0061 46.3071 56.7256 46.4744 56.4351 46.6384C56.6661 46.7728 56.8906 46.904 57.115 47.0352C57.6761 47.3664 58.0193 47.7829 58.1382 48.2683C58.2405 48.6848 58.1679 49.1144 57.9203 49.5145C57.6002 50.036 57.1018 50.3213 56.511 50.3213C56.1414 50.3213 55.7552 50.2065 55.3559 49.9769C55.138 49.8523 54.9202 49.7277 54.6958 49.5998C54.6958 49.895 54.6958 50.1835 54.6958 50.4721C54.6859 51.5642 54.0324 52.289 53.0323 52.3218H52.9795H52.9828Z" fill="#FEFEFE"/>
<path d="M29.0543 52.3218C28.041 52.3218 27.3479 51.5938 27.3248 50.5115C27.3182 50.2098 27.3182 49.9114 27.3182 49.6064C27.0971 49.7343 26.8793 49.8556 26.6614 49.9802C26.2621 50.2032 25.8759 50.318 25.5096 50.318C24.9188 50.318 24.4171 50.0294 24.1002 49.508C23.79 49.0029 23.8131 48.5569 23.8824 48.2683C24.0012 47.7895 24.3511 47.3763 24.9188 47.0418C25.1465 46.9073 25.3775 46.7728 25.6119 46.6384C25.3808 46.5039 25.1531 46.3695 24.9254 46.2383C24.3577 45.907 24.0078 45.4971 23.8824 45.0216C23.8098 44.7362 23.7834 44.287 24.0903 43.7786C24.4039 43.2539 24.9221 42.9522 25.5096 42.9522C25.8726 42.9522 26.2588 43.0637 26.6515 43.2867C26.8727 43.4113 27.0905 43.5392 27.3149 43.6671C27.3149 43.3949 27.3149 43.126 27.3182 42.8571C27.3314 41.4829 28.1962 40.9713 29.0015 40.9517H29.051C29.8695 40.9517 30.7474 41.46 30.754 42.8833C30.754 43.1424 30.7573 43.4048 30.7573 43.6737C30.9884 43.5425 31.2128 43.4146 31.4438 43.2867C31.8333 43.067 32.2162 42.9555 32.5825 42.9555C33.1799 42.9555 33.7014 43.2605 34.0083 43.7885C34.3978 44.464 34.4077 45.5102 33.1601 46.2481C32.939 46.376 32.7178 46.5072 32.4934 46.6351C32.7475 46.7827 32.9984 46.927 33.2459 47.0746C34.1799 47.6288 34.4968 48.5766 34.0347 49.4325C33.741 49.9868 33.1898 50.318 32.5627 50.318C32.2195 50.318 31.8696 50.2229 31.5296 50.0327C31.2722 49.8917 31.0181 49.7474 30.7573 49.5998C30.7573 49.9048 30.7573 50.2 30.7507 50.4984C30.7342 51.5839 30.051 52.3185 29.0477 52.3251H29.0444L29.0543 52.3218Z" fill="#032AB4"/>
<path d="M41.0515 52.3218C40.969 52.3218 40.8865 52.3153 40.8007 52.3054C39.9096 52.1874 39.3386 51.5544 39.3155 50.6591C39.3056 50.3147 39.299 49.9605 39.2957 49.6063C39.1439 49.6916 38.5894 49.9999 38.5894 49.9999C38.2098 50.2065 37.8402 50.3115 37.4804 50.3115C36.8533 50.3115 36.3219 49.9933 36.0216 49.4424C35.5529 48.5635 35.883 47.6255 36.8665 47.0483L37.5827 46.6351C37.3418 46.4973 37.1075 46.3596 36.8731 46.2219C35.8962 45.6447 35.5628 44.7133 36.0183 43.8409C36.3219 43.2736 36.8533 42.9522 37.4837 42.9522C37.8468 42.9522 38.2197 43.0571 38.5927 43.267C38.8303 43.3982 39.068 43.5359 39.3089 43.6737C39.3089 43.3621 39.3089 43.0506 39.3155 42.739C39.3419 41.6764 39.9657 40.991 40.9426 40.9484C40.9723 40.9484 41.002 40.9484 41.0284 40.9484C42.0054 40.9484 42.7117 41.6731 42.7447 42.7095C42.7546 43.0276 42.7579 43.3424 42.7546 43.6638C42.8437 43.6114 42.9394 43.5589 43.0351 43.5097C43.1144 43.4703 43.1936 43.4211 43.2761 43.3719C43.4081 43.2932 43.5566 43.2014 43.7249 43.1227C43.9857 43.0014 44.253 42.9423 44.527 42.9423C45.1739 42.9423 45.7317 43.2834 46.0221 43.8508C46.4545 44.6903 46.2201 45.5627 45.4181 46.071C45.1079 46.2678 44.7976 46.4547 44.4775 46.6416C44.7151 46.7794 44.9494 46.9171 45.1838 47.0549C46.3719 47.7632 46.3752 48.7865 46.0155 49.4457C45.7019 50.0032 45.1706 50.318 44.5534 50.318C44.1936 50.318 43.8207 50.2131 43.4477 49.9999C43.22 49.872 42.9922 49.7408 42.7579 49.6063C42.7579 49.9277 42.7579 50.2393 42.7447 50.5574C42.715 51.597 42.0186 52.3218 41.0582 52.3218H41.0515Z" fill="#032AB4"/>
<path d="M52.9828 52.3218C51.9662 52.3218 51.2764 51.5741 51.2665 50.459C51.2632 50.1737 51.2599 49.8917 51.2599 49.5998C50.9959 49.7474 50.7385 49.895 50.481 50.0458C50.1477 50.2393 49.8143 50.3344 49.4876 50.3344C49.108 50.3344 48.7384 50.1999 48.4215 49.9441C47.9859 49.5932 47.7548 49.0849 47.7911 48.5438C47.8307 47.9699 48.1575 47.4517 48.6955 47.127C48.976 46.9565 49.2565 46.7925 49.547 46.6285L49.0222 46.3235C48.5898 46.071 47.9925 45.6611 47.8208 44.9953C47.7152 44.5854 47.7911 44.1689 48.0453 43.7556C48.3621 43.2408 48.8506 42.9554 49.4249 42.9554C49.8176 42.9554 50.2401 43.0866 50.7154 43.3588L51.2632 43.6704C51.2632 43.3949 51.2632 43.126 51.2632 42.8538C51.2764 41.4796 52.1412 40.968 52.9465 40.9484H52.996C53.8178 40.9484 54.6958 41.4534 54.7024 42.8767C54.7024 43.1424 54.7024 43.408 54.7024 43.6769C54.9664 43.5294 55.2238 43.3785 55.4813 43.2309C55.8179 43.0342 56.1579 42.9325 56.4879 42.9325C56.9005 42.9325 57.2932 43.0899 57.6233 43.3883C58.0226 43.7491 58.224 44.2509 58.1778 44.7657C58.1283 45.3167 57.8048 45.8185 57.2866 46.1366C57.0061 46.3071 56.7256 46.4744 56.4351 46.6384C56.6661 46.7728 56.8906 46.904 57.115 47.0352C57.6761 47.3664 58.0193 47.7829 58.1382 48.2683C58.2405 48.6848 58.1679 49.1144 57.9203 49.5145C57.6002 50.036 57.1018 50.3213 56.511 50.3213C56.1414 50.3213 55.7552 50.2065 55.3559 49.9769C55.138 49.8523 54.9202 49.7277 54.6958 49.5998C54.6958 49.895 54.6958 50.1835 54.6958 50.4721C54.6859 51.5642 54.0324 52.289 53.0323 52.3218H52.9795H52.9828Z" fill="#032AB4"/>
</g>
<defs>
<clipPath id="clip0_516_5483">
<rect width="67" height="70.6216" fill="white"/>
</clipPath>
</defs>
</svg>
