<svg width="95" height="95" viewBox="0 0 95 95" fill="none" xmlns="http://www.w3.org/2000/svg">
<path opacity="0.4" d="M95 27.5975V56.525L87.2575 49.875C83.5525 46.6925 77.5675 46.6925 73.8625 49.875L54.1025 66.8325C50.3975 70.015 44.4125 70.015 40.7075 66.8325L39.0925 65.5025C35.72 62.5575 30.3525 62.2725 26.5525 64.8375L3.1825 80.5125L2.66 80.8925C0.9025 77.0925 0 72.58 0 67.4025V27.5975C0 10.3075 10.3075 0 27.5975 0H67.4025C84.6925 0 95 10.3075 95 27.5975Z" fill="white"/>
<path d="M33.25 39.8048C39.4936 39.8048 44.555 34.7434 44.555 28.4998C44.555 22.2562 39.4936 17.1948 33.25 17.1948C27.0064 17.1948 21.945 22.2562 21.945 28.4998C21.945 34.7434 27.0064 39.8048 33.25 39.8048Z" fill="white"/>
<path d="M95 56.5252V67.4027C95 84.6927 84.6925 95.0002 67.4025 95.0002H27.5975C15.485 95.0002 6.745 89.9177 2.66 80.8927L3.1825 80.5127L26.5525 64.8377C30.3525 62.2727 35.72 62.5577 39.0925 65.5027L40.7075 66.8327C44.4125 70.0152 50.3975 70.0152 54.1025 66.8327L73.8625 49.8752C77.5675 46.6927 83.5525 46.6927 87.2575 49.8752L95 56.5252Z" fill="white"/>
</svg>
