<svg width="67" height="58" viewBox="0 0 67 58" fill="none" xmlns="http://www.w3.org/2000/svg">
<g clip-path="url(#clip0_516_5493)">
<path d="M15.4953 34.3734C15.8442 33.9999 16.1831 33.6215 16.5419 33.258C18.0022 31.794 19.4775 30.345 20.9229 28.8611C21.3615 28.4129 21.8399 28.2337 22.453 28.2337C27.8456 28.2436 33.2433 28.2337 38.636 28.2436C39.6528 28.2436 40.2259 28.7117 40.196 29.4835C40.1711 30.2205 39.6029 30.6537 38.636 30.6537C33.5025 30.6537 28.369 30.6637 23.2354 30.6437C22.752 30.6437 22.4181 30.7832 22.0791 31.1268C19.8363 33.3974 17.5587 35.6431 15.3109 37.9088C14.8374 38.3868 14.339 38.7503 13.6512 38.4665C12.9534 38.1777 12.9036 37.5503 12.9086 36.883C12.9285 35.0257 12.8886 33.1683 12.9285 31.311C12.9385 30.7384 12.7591 30.6338 12.2308 30.6437C10.1375 30.6736 8.0392 30.6637 5.94592 30.6537C2.47705 30.6437 0.014952 28.2038 0.00996801 24.7281C-0.00498401 18.4988 0 12.2695 0.00498401 6.04013C0.00996801 2.40013 2.39731 0.00998313 6.06554 0.00500365C15.1265 -0.00495531 24.1874 2.4167e-05 33.2483 2.4167e-05C42.4687 2.4167e-05 51.6842 2.4167e-05 60.9046 2.4167e-05C63.7654 2.4167e-05 65.8686 1.43909 66.7059 3.9139C66.9103 4.51641 66.995 5.12889 66.995 5.76128C66.995 12.1201 67.01 18.4789 66.99 24.8427C66.9801 27.8702 64.9416 30.1657 61.9462 30.6039C61.5874 30.6587 61.2186 30.7035 60.8597 30.5591C60.3115 30.33 60.0224 29.9217 60.0772 29.3341C60.1271 28.7914 60.4361 28.4129 60.9843 28.2885C61.2883 28.2187 61.6073 28.2088 61.9163 28.154C63.5062 27.8752 64.5977 26.4759 64.5977 24.6833C64.6027 18.9519 64.5977 13.2205 64.5977 7.48916C64.5977 6.94142 64.6077 6.3887 64.5977 5.84095C64.5628 3.80435 63.1573 2.40013 61.1139 2.40013C55.2477 2.39018 49.3815 2.40013 43.5154 2.40013C31.1002 2.40013 18.685 2.40013 6.27486 2.40013C3.66325 2.40013 2.39232 3.67986 2.39232 6.31401C2.39232 12.3591 2.39232 18.4042 2.39232 24.4493C2.39232 26.9042 3.71309 28.2287 6.1702 28.2387C8.65722 28.2436 11.1442 28.2387 13.6362 28.2387C14.9769 28.2387 15.3208 28.5773 15.3258 29.8968C15.3258 31.3508 15.3258 32.8048 15.3258 34.2589C15.3806 34.2937 15.4405 34.3335 15.4953 34.3684V34.3734Z" fill="#0353C2"/>
<path d="M53.3189 43.5754C53.3289 43.9738 53.1196 44.2676 52.8554 44.5315C52.1676 45.2137 51.4948 45.9108 50.802 46.5781C50.1242 47.2304 49.5062 47.2154 48.8184 46.5532C48.4645 46.2096 48.0957 45.871 47.7817 45.4875C47.3531 44.9697 47.383 44.412 47.8365 43.929C48.2851 43.4559 48.8682 43.3563 49.3816 43.7895C49.7604 44.1132 49.9647 44.0535 50.2588 43.7198C50.6026 43.3265 50.9814 42.963 51.3752 42.6194C51.7639 42.2857 52.2324 42.2409 52.6909 42.4849C53.1146 42.714 53.3339 43.0825 53.3189 43.5754Z" fill="#0353C2"/>
<path d="M57.3808 42.211V40.4832C57.3808 39.7014 57.012 39.2283 56.2644 38.9794C54.4552 38.3818 52.656 37.7494 50.8618 37.122C50.3933 36.9577 49.9597 36.9577 49.4912 37.127C47.7418 37.7494 46.0023 38.3818 44.233 38.9345C43.3708 39.2034 42.992 39.7064 42.9571 40.5728C42.8873 42.3555 42.8973 44.1281 43.2562 45.8809C43.9838 49.4313 45.7731 52.0405 49.526 52.902C49.9447 52.9966 50.3534 53.0265 50.7671 52.9269C53.3538 52.3244 55.2477 50.8803 56.3093 48.4105C57.1615 46.4287 57.4357 44.3423 57.3808 42.211ZM55.0284 41.982C55.0035 42.1612 55.0234 42.3505 55.0234 42.7289C54.9586 44.0783 54.8091 45.6071 54.2559 47.071C53.9867 47.7831 53.6478 48.4703 53.1046 49.013C50.9913 51.1044 49.0276 50.9899 47.0639 48.774C45.9824 47.554 45.6634 45.9855 45.474 44.417C45.3694 43.5356 45.3793 42.6443 45.3195 41.7579C45.2896 41.3048 45.4392 41.0458 45.9077 40.9014C47.2035 40.4931 48.4894 40.05 49.7653 39.5869C50.0942 39.4674 50.3634 39.5072 50.6674 39.6118C51.8486 40.03 53.0248 40.4832 54.226 40.8267C54.8789 41.016 55.1181 41.3446 55.0284 41.982Z" fill="#0353C2"/>
<path d="M59.4443 36.3154C58.3926 35.1601 57.6749 34.1194 58.0338 32.5509C58.0338 32.0778 58.0438 31.6098 58.0288 31.1367C57.9241 27.3274 54.9686 24.021 51.2954 23.6027C47.2235 23.1397 43.625 25.5149 42.5933 29.3142C42.1398 30.9674 42.3491 32.6455 42.3142 34.3086C42.3043 34.7369 42.1896 35.0207 41.8607 35.3145C39.1793 37.7246 37.719 40.7521 37.6193 44.3572C37.4 52.2597 44.3726 58.3545 52.2224 57.0549C57.0769 56.2532 60.4161 53.395 62.026 48.784C63.6258 44.1929 62.7287 39.9155 59.4443 36.3154ZM44.6916 32.6554C44.7165 31.7691 44.6667 30.8778 44.9009 30.0113C45.6136 27.3573 48.0658 25.6842 50.8319 25.968C53.4136 26.2319 55.5019 28.4727 55.6365 31.1467C55.6714 31.8488 55.6365 32.5559 55.6365 33.3625C54.1512 32.7451 52.7408 32.3268 51.2406 32.1973C49.1922 32.0231 47.2235 32.3218 45.3495 33.1285C44.7265 33.3924 44.6667 33.2131 44.6866 32.6554H44.6916ZM50.1192 54.849C44.5421 54.8241 40.0216 50.2479 40.0465 44.661C40.0714 39.0441 44.582 34.5626 50.2039 34.5725C55.791 34.5825 60.3513 39.1387 60.3464 44.7008C60.3364 50.2928 55.7212 54.8739 50.1192 54.849Z" fill="#032AB4"/>
<path d="M24.7405 15.8048C24.0079 15.6654 23.3799 15.5409 22.7469 15.4264C22.1089 15.3119 21.6056 15.0031 21.4212 14.3608C21.2517 13.7682 21.3763 13.2155 21.8697 12.7972C22.3831 12.359 22.9562 12.3441 23.5543 12.608C24.1673 12.8819 24.7854 13.1458 25.508 13.4595C25.4133 12.6976 25.3386 12.0304 25.2539 11.3681C25.1243 10.3473 25.7473 9.53566 26.6743 9.51076C27.5864 9.48586 28.2343 10.2029 28.1695 11.2187C28.1246 11.9158 28.02 12.613 27.9352 13.4147C28.633 13.101 29.2361 12.8122 29.8491 12.5532C30.826 12.1399 31.6982 12.4984 32.0072 13.4246C32.3062 14.316 31.768 15.1674 30.7562 15.3965C30.4273 15.4712 30.0883 15.516 29.7544 15.5807C29.4454 15.6355 29.1414 15.7003 28.7078 15.7799C29.2112 16.3227 29.6597 16.8157 30.1083 17.2987C30.5668 17.7916 30.806 18.3394 30.5269 19.0116C30.2827 19.6042 29.8242 19.9278 29.2062 19.9527C28.5034 19.9826 28.0399 19.5842 27.7259 18.9867C27.4368 18.434 27.1328 17.8862 26.774 17.214C26.3653 17.9261 26.0114 18.5734 25.6277 19.2058C25.2838 19.7735 24.7654 20.0523 24.1075 19.9428C23.4945 19.8432 23.0709 19.4647 22.8864 18.8622C22.712 18.2796 22.9164 17.7867 23.3151 17.3584C23.7686 16.8655 24.2222 16.3675 24.7455 15.7998L24.7405 15.8048Z" fill="#0353C2"/>
<path d="M11.2388 15.8049C10.4863 15.6655 9.85329 15.5459 9.22032 15.4264C8.58237 15.3069 8.08397 14.9882 7.90953 14.3459C7.74506 13.7533 7.88461 13.2006 8.37802 12.7923C8.90134 12.3591 9.46952 12.3591 10.0676 12.623C10.6806 12.8919 11.2937 13.1608 12.0014 13.4695C11.9067 12.6927 11.827 12.0205 11.7472 11.3482C11.6326 10.3225 12.2705 9.52576 13.2025 9.52576C14.1146 9.52576 14.7077 10.2378 14.6678 11.2686C14.6429 11.9657 14.3987 12.6429 14.4884 13.4048C15.1363 13.111 15.7444 12.8122 16.3624 12.5533C17.3243 12.1499 18.2264 12.5433 18.5055 13.4645C18.7747 14.3359 18.2563 15.1775 17.2894 15.3966C16.6315 15.5459 15.9637 15.6455 15.1912 15.785C15.7195 16.3626 16.1979 16.8655 16.6565 17.3933C17.3293 18.1701 17.2695 19.1013 16.5319 19.659C15.7643 20.2366 14.8124 20.0125 14.2791 19.1063C13.9352 18.5237 13.6262 17.9212 13.2773 17.2838C12.8088 17.8216 12.5596 18.454 12.2257 19.0316C11.8868 19.6192 11.4282 20.0175 10.7255 19.9677C10.1025 19.9279 9.65393 19.5943 9.4147 19.0017C9.14058 18.3245 9.39975 17.7867 9.85329 17.2937C10.2919 16.8207 10.7255 16.3427 11.2289 15.7999L11.2388 15.8049Z" fill="#0353C2"/>
<path d="M38.2522 15.8049C37.5046 15.6654 36.8766 15.541 36.2436 15.4264C35.6057 15.3119 35.1073 15.0032 34.9278 14.3558C34.7584 13.7583 34.893 13.2106 35.3864 12.7973C35.9047 12.364 36.4779 12.3541 37.076 12.618C37.689 12.8919 38.312 13.1558 39.0197 13.4695C38.925 12.7076 38.8403 12.0404 38.7506 11.3731C38.621 10.3623 39.254 9.54068 40.186 9.52077C41.0931 9.49587 41.741 10.2179 41.6812 11.2337C41.6363 11.9308 41.5267 12.628 41.437 13.4297C42.1297 13.116 42.7378 12.8421 43.3409 12.5682C43.9339 12.2943 44.5121 12.2894 45.0304 12.7226C45.5089 13.1259 45.7033 13.6537 45.5438 14.2662C45.3693 14.9484 44.866 15.292 44.1981 15.4165C43.5801 15.531 42.9671 15.6405 42.2892 15.765C42.6281 16.3626 43.1315 16.7709 43.5552 17.2439C44.0237 17.7618 44.3127 18.3095 44.0286 19.0166C43.7894 19.6092 43.3309 19.9378 42.7079 19.9627C41.9653 19.9976 41.5067 19.5594 41.1878 18.927C40.9186 18.3942 40.6196 17.8714 40.2607 17.219C39.852 17.9361 39.4982 18.5834 39.1194 19.2158C38.7954 19.7536 38.302 20.0324 37.674 19.9578C37.056 19.888 36.6124 19.5345 36.4031 18.937C36.1938 18.3245 36.3931 17.8116 36.8118 17.3585C37.2703 16.8655 37.7239 16.3676 38.2472 15.7999L38.2522 15.8049Z" fill="#0353C2"/>
<path d="M52.5315 13.4745C52.4318 12.7127 52.3571 12.0653 52.2574 11.423C52.1527 10.7408 52.3222 10.1731 52.9103 9.77975C53.4087 9.44613 53.942 9.43617 54.4653 9.72996C55.0584 10.0686 55.2627 10.6014 55.193 11.2537C55.1182 11.9458 55.0335 12.638 54.9388 13.4247C55.6365 13.106 56.2446 12.8123 56.8626 12.5533C57.8445 12.14 58.7017 12.4986 59.0107 13.4347C59.3098 14.3459 58.7914 15.1775 57.7597 15.3966C57.1218 15.5311 56.4788 15.6356 55.7063 15.775C56.2197 16.3278 56.6732 16.8207 57.1268 17.3137C57.5903 17.8117 57.7996 18.3743 57.5305 19.0316C57.3012 19.5893 56.8576 19.903 56.2695 19.9528C55.5668 20.0076 55.0833 19.6341 54.7594 19.0316C54.4504 18.464 54.1413 17.8963 53.7725 17.2141C53.4286 17.8166 53.1196 18.3096 52.8555 18.8324C52.5116 19.5097 52.058 20.0176 51.2357 19.9628C50.6127 19.918 50.1541 19.5794 49.9348 18.9818C49.6557 18.2349 49.9947 17.6772 50.503 17.1643C50.9067 16.756 51.2805 16.3228 51.754 15.8099C51.0363 15.6705 50.4183 15.541 49.8003 15.4315C49.1274 15.3169 48.6141 15.0082 48.4297 14.321C48.2752 13.7484 48.4048 13.2256 48.8583 12.8222C49.3916 12.3492 49.9897 12.3492 50.6127 12.628C51.2058 12.8919 51.7989 13.1558 52.5315 13.4795V13.4745Z" fill="#0353C2"/>
<path d="M53.3189 43.5754C53.3289 43.9738 53.1196 44.2676 52.8554 44.5315C52.1676 45.2137 51.4948 45.9108 50.802 46.5781C50.1242 47.2304 49.5062 47.2154 48.8184 46.5532C48.4645 46.2096 48.0957 45.871 47.7817 45.4875C47.3531 44.9697 47.383 44.412 47.8365 43.929C48.2851 43.4559 48.8682 43.3563 49.3816 43.7895C49.7604 44.1132 49.9647 44.0535 50.2588 43.7198C50.6026 43.3265 50.9814 42.963 51.3752 42.6194C51.7639 42.2857 52.2324 42.2409 52.6909 42.4849C53.1146 42.714 53.3339 43.0825 53.3189 43.5754Z" fill="#FEFEFE"/>
<path d="M57.3808 42.211V40.4832C57.3808 39.7014 57.012 39.2283 56.2644 38.9794C54.4552 38.3818 52.656 37.7494 50.8618 37.122C50.3933 36.9577 49.9597 36.9577 49.4912 37.127C47.7418 37.7494 46.0023 38.3818 44.233 38.9345C43.3708 39.2034 42.992 39.7064 42.9571 40.5728C42.8873 42.3555 42.8973 44.1281 43.2562 45.8809C43.9838 49.4313 45.7731 52.0405 49.526 52.902C49.9447 52.9966 50.3534 53.0265 50.7671 52.9269C53.3538 52.3244 55.2477 50.8803 56.3093 48.4105C57.1615 46.4287 57.4357 44.3423 57.3808 42.211ZM55.0284 41.982C55.0035 42.1612 55.0234 42.3505 55.0234 42.7289C54.9586 44.0783 54.8091 45.6071 54.2559 47.071C53.9867 47.7831 53.6478 48.4703 53.1046 49.013C50.9913 51.1044 49.0276 50.9899 47.0639 48.774C45.9824 47.554 45.6634 45.9855 45.474 44.417C45.3694 43.5356 45.3793 42.6443 45.3195 41.7579C45.2896 41.3048 45.4392 41.0458 45.9077 40.9014C47.2035 40.4931 48.4894 40.05 49.7653 39.5869C50.0942 39.4674 50.3634 39.5072 50.6674 39.6118C51.8486 40.03 53.0248 40.4832 54.226 40.8267C54.8789 41.016 55.1181 41.3446 55.0284 41.982Z" fill="#FEFEFE"/>
<path d="M53.3189 43.5754C53.3289 43.9738 53.1196 44.2676 52.8554 44.5315C52.1676 45.2137 51.4948 45.9108 50.802 46.5781C50.1242 47.2304 49.5062 47.2154 48.8184 46.5532C48.4645 46.2096 48.0957 45.871 47.7817 45.4875C47.3531 44.9697 47.383 44.412 47.8365 43.929C48.2851 43.4559 48.8682 43.3563 49.3816 43.7895C49.7604 44.1132 49.9647 44.0535 50.2588 43.7198C50.6026 43.3265 50.9814 42.963 51.3752 42.6194C51.7639 42.2857 52.2324 42.2409 52.6909 42.4849C53.1146 42.714 53.3339 43.0825 53.3189 43.5754Z" fill="#0353C2"/>
<path d="M57.3808 42.211V40.4832C57.3808 39.7014 57.012 39.2283 56.2644 38.9794C54.4552 38.3818 52.656 37.7494 50.8618 37.122C50.3933 36.9577 49.9597 36.9577 49.4912 37.127C47.7418 37.7494 46.0023 38.3818 44.233 38.9345C43.3708 39.2034 42.992 39.7064 42.9571 40.5728C42.8873 42.3555 42.8973 44.1281 43.2562 45.8809C43.9838 49.4313 45.7731 52.0405 49.526 52.902C49.9447 52.9966 50.3534 53.0265 50.7671 52.9269C53.3538 52.3244 55.2477 50.8803 56.3093 48.4105C57.1615 46.4287 57.4357 44.3423 57.3808 42.211ZM55.0284 41.982C55.0035 42.1612 55.0234 42.3505 55.0234 42.7289C54.9586 44.0783 54.8091 45.6071 54.2559 47.071C53.9867 47.7831 53.6478 48.4703 53.1046 49.013C50.9913 51.1044 49.0276 50.9899 47.0639 48.774C45.9824 47.554 45.6634 45.9855 45.474 44.417C45.3694 43.5356 45.3793 42.6443 45.3195 41.7579C45.2896 41.3048 45.4392 41.0458 45.9077 40.9014C47.2035 40.4931 48.4894 40.05 49.7653 39.5869C50.0942 39.4674 50.3634 39.5072 50.6674 39.6118C51.8486 40.03 53.0248 40.4832 54.226 40.8267C54.8789 41.016 55.1181 41.3446 55.0284 41.982Z" fill="#0353C2"/>
<path d="M53.3189 43.5754C53.3289 43.9738 53.1196 44.2676 52.8554 44.5315C52.1676 45.2137 51.4948 45.9108 50.802 46.5781C50.1242 47.2304 49.5062 47.2154 48.8184 46.5532C48.4645 46.2096 48.0957 45.871 47.7817 45.4875C47.3531 44.9697 47.383 44.412 47.8365 43.929C48.2851 43.4559 48.8682 43.3563 49.3816 43.7895C49.7604 44.1132 49.9647 44.0535 50.2588 43.7198C50.6026 43.3265 50.9814 42.963 51.3752 42.6194C51.7639 42.2857 52.2324 42.2409 52.6909 42.4849C53.1146 42.714 53.3339 43.0825 53.3189 43.5754Z" fill="#FEFEFE"/>
<path d="M53.3189 43.5754C53.3289 43.9738 53.1196 44.2676 52.8554 44.5315C52.1676 45.2137 51.4948 45.9108 50.802 46.5781C50.1242 47.2304 49.5062 47.2154 48.8184 46.5532C48.4645 46.2096 48.0957 45.871 47.7817 45.4875C47.3531 44.9697 47.383 44.412 47.8365 43.929C48.2851 43.4559 48.8682 43.3563 49.3816 43.7895C49.7604 44.1132 49.9647 44.0535 50.2588 43.7198C50.6026 43.3265 50.9814 42.963 51.3752 42.6194C51.7639 42.2857 52.2324 42.2409 52.6909 42.4849C53.1146 42.714 53.3339 43.0825 53.3189 43.5754Z" fill="#0353C2"/>
</g>
<defs>
<clipPath id="clip0_516_5493">
<rect width="67" height="57.2292" fill="white"/>
</clipPath>
</defs>
</svg>
